<svg xmlns="http://www.w3.org/2000/svg" width="74.207" height="120.444" viewBox="0 0 74.207 120.444">
  <g id="Etherium" transform="translate(-0.5 -0.8)">
    <g id="Group" transform="translate(0.5 0.8)">
      <path id="Shape" d="M37.794.8V45.134a.409.409,0,0,1-.381.381c-1.332.571-2.474,1.142-3.805,1.712-1.712.761-3.615,1.522-5.328,2.474L22,52.555l-5.137,2.283-6.279,2.854c-1.712.761-3.425,1.522-5.328,2.474-1.332.571-2.854,1.332-4.186,1.9-.19,0-.19.19-.381,0H.5c.571-.951,1.142-1.712,1.712-2.664,3.044-5.137,6.279-10.275,9.323-15.412,3.235-5.518,6.66-11.036,9.894-16.554,3.044-5.137,6.089-10.275,9.133-15.222C32.847,8.411,35.13,4.8,37.223.99,37.6.99,37.6.8,37.794.8h0Z" transform="translate(-0.5 -0.8)" fill="#2543bb"/>
      <path id="Shape-2" data-name="Shape" d="M57.1,40.944c-2.854,1.9-5.9,3.615-8.753,5.328-9.323,5.518-18.457,10.846-27.78,16.364-.19,0-.19.19-.381.19a.186.186,0,0,1-.19-.19V24.39c0-.19.19-.19.381-.19.761.381,1.522.761,2.474,1.142,2.283,1.142,4.757,2.093,7.04,3.235,2.093.951,4,1.9,6.089,2.664,2.093.951,4,1.9,6.089,2.854,1.712.761,3.615,1.522,5.328,2.474,1.712.761,3.615,1.522,5.328,2.474,1.332.571,2.664,1.332,4.186,1.9,0-.19,0,0,.19,0Z" transform="translate(17.104 20.324)" fill="#223ead"/>
      <path id="Shape-3" data-name="Shape" d="M37.7,88.745h0c-.19,0-.19,0-.381-.19C33.517,83.227,29.9,78.09,26.1,72.762L14.68,56.779C11.065,51.641,7.26,46.5,3.644,41.176l-2.854-4c0-.19-.19-.19-.19-.381.19,0,.19.19.381.19,5.137,3.044,10.465,6.089,15.6,9.133,5.9,3.615,11.987,7.04,17.886,10.655.951.571,2.093,1.142,3.044,1.712.19,0,.19.19.19.381Z" transform="translate(-0.41 31.699)" fill="#2543bb"/>
      <path id="Shape-4" data-name="Shape" d="M.6,33Z" transform="translate(-0.41 28.268)" fill="gray"/>
      <path id="Shape-5" data-name="Shape" d="M.7,41.225h0c1.9-.951,3.805-1.712,5.708-2.664l7.421-3.425c1.9-.951,3.805-1.712,5.708-2.664C22.2,31.14,25.055,30,27.719,28.667c1.9-.761,3.805-1.712,5.708-2.474a38.029,38.029,0,0,0,4-1.9c.19,0,.19-.19.381-.19V62.916c-.19.19-.19,0-.381,0a10.621,10.621,0,0,1-1.522-.951L1.081,41.415a.589.589,0,0,0-.381-.19Z" transform="translate(-0.319 20.234)" fill="#2340b1"/>
      <path id="Shape-6" data-name="Shape" d="M56.823,36.8c0,.19,0,.19-.19.381C45.6,52.783,34.561,68.2,23.525,83.8c-1.142,1.712-2.283,3.235-3.425,4.947V58.491c2.474-1.522,4.947-3.044,7.421-4.376L56.633,36.99a.186.186,0,0,1,.19-.19Z" transform="translate(17.194 31.699)" fill="#2340b1"/>
      <path id="Shape-7" data-name="Shape" d="M20.1,45.234V.9L56.633,61.407c.19.19.381.381.381.571-.761-.381-1.522-.761-2.474-1.142s-1.9-.951-2.854-1.332a19.741,19.741,0,0,0-1.9-.761c-.951-.381-2.093-.951-3.044-1.332-.571-.19-1.142-.571-1.712-.761l-4-1.712c-.761-.381-1.332-.571-2.093-.951-.951-.381-1.9-.951-2.854-1.332-.571-.19-1.142-.571-1.712-.761l-4-1.712c-.761-.381-1.332-.571-2.093-.951-.951-.381-1.9-.951-2.854-1.332-.571-.381-1.332-.571-1.9-.951L20.1,45.234Z" transform="translate(17.194 -0.71)" fill="#233fb0"/>
    </g>
  </g>
</svg>
