<svg width="150" height="150" viewBox="0 0 150 150" fill="none" xmlns="http://www.w3.org/2000/svg">
<g opacity="0.35">
<g clip-path="url(#clip0)">
<path d="M120.455 45.4547C111.668 45.4547 104.546 38.332 104.546 29.5456C104.546 13.2278 91.3175 0 75 0C58.6825 0 45.4547 13.2278 45.4547 29.5453C45.4547 38.3317 38.332 45.4544 29.5456 45.4544C13.2278 45.4547 0 58.6825 0 75C0 91.3175 13.2278 104.545 29.5453 104.545C38.3317 104.545 45.4544 111.668 45.4544 120.454C45.4547 136.772 58.6825 150 75 150C91.3175 150 104.545 136.772 104.545 120.455C104.545 111.668 111.668 104.546 120.454 104.546C136.772 104.545 150 91.3175 150 75C150 58.6825 136.772 45.4547 120.455 45.4547Z" fill="url(#paint0_linear)"/>
<path d="M109.074 24.9132V13.3635C109.074 11.8409 107.84 10.6066 106.318 10.6066H31.3524C29.8299 10.6066 28.5956 11.8409 28.5956 13.3635V24.9132H109.074Z" fill="#FFBE76"/>
<path d="M54.1722 24.9108L64.5307 11.5022L62.2122 9.71103L50.47 24.9108H54.1722Z" fill="#D56600"/>
<path d="M100.082 19.6491H66.9014C66.1405 19.6491 65.5236 19.0321 65.5236 18.2713C65.5236 17.5105 66.1403 16.8935 66.9014 16.8935H100.082C100.842 16.8935 101.459 17.5105 101.459 18.2713C101.459 19.0321 100.843 19.6491 100.082 19.6491Z" fill="#D56600"/>
<path fill-rule="evenodd" clip-rule="evenodd" d="M46.582 84.876C58.8047 97.0983 78.692 97.0983 90.9144 84.876C103.137 72.6533 103.137 52.766 90.9144 40.5436C78.692 28.3213 58.8044 28.3213 46.582 40.5436C34.3597 52.766 34.3594 72.6536 46.582 84.876ZM92.3101 62.7103C92.3101 75.731 81.7547 86.2863 68.734 86.2863C55.7133 86.2863 45.158 75.731 45.158 62.7103C45.158 49.6895 55.7133 39.1342 68.734 39.1342C81.7547 39.1342 92.3101 49.6895 92.3101 62.7103Z" fill="#FFBE76"/>
<path d="M120.187 122.937L124.237 126.987C125.249 127.999 126.888 127.999 127.899 126.987L133.026 121.861C134.037 120.849 134.037 119.21 133.026 118.199L128.976 114.149L120.187 122.937Z" fill="#FFBE76"/>
<path d="M103.489 106.261L112.276 97.4739L118.076 103.274L109.288 112.061L103.489 106.261Z" fill="#FFBE76"/>
<path d="M66.9408 71.2837C66.1316 71.2837 65.4759 70.6277 65.4759 69.8189V68.0563C65.4759 66.9193 65.7742 65.7967 66.3381 64.8091C67.2018 63.2977 68.6576 62.1771 70.3322 61.7341C72.8895 61.0582 74.6757 58.7358 74.6757 56.0865C74.6757 54.4957 74.0473 53.0086 72.9071 51.8991C71.7672 50.7902 70.2628 50.2049 68.6684 50.248C65.6084 50.3326 63.0633 52.8917 62.9954 55.9529C62.981 56.5922 63.0689 57.2215 63.2561 57.8235C63.4963 58.5961 63.0648 59.417 62.2922 59.6572C61.5203 59.8975 60.6988 59.4662 60.4586 58.6934C60.177 57.7884 60.0452 56.8444 60.0663 55.8879C60.1703 51.2124 63.9132 47.4486 68.5873 47.3192C70.9823 47.2547 73.2379 48.1336 74.95 49.7988C76.6624 51.4647 77.6054 53.6977 77.6054 56.0862C77.6054 60.0639 74.9224 63.5511 71.0807 64.5662C70.1599 64.8097 69.3587 65.4278 68.882 66.2622C68.5703 66.8077 68.4053 67.4279 68.4053 68.0561V69.8186C68.4056 70.6277 67.75 71.2837 66.9408 71.2837Z" fill="#D56600"/>
<path d="M66.9408 76.9069C66.1316 76.9069 65.476 76.251 65.476 75.4421V75.411C65.476 74.6022 66.1316 73.9462 66.9408 73.9462C67.75 73.9462 68.4056 74.6022 68.4056 75.411V75.4421C68.4056 76.2513 67.75 76.9069 66.9408 76.9069Z" fill="#D56600"/>
<path d="M91.4695 122.326H46.2C45.3908 122.326 44.7351 122.982 44.7351 123.791C44.7351 124.6 45.3908 125.256 46.2 125.256H91.4695C92.2787 125.256 92.9343 124.6 92.9343 123.791C92.9343 122.982 92.2787 122.326 91.4695 122.326Z" fill="#D56600"/>
<path d="M56.8755 116.612H46.2009C45.3917 116.612 44.7361 117.268 44.7361 118.077C44.7361 118.886 45.3917 119.542 46.2009 119.542H56.8755C57.6847 119.542 58.3404 118.886 58.3404 118.077C58.3404 117.268 57.6847 116.612 56.8755 116.612Z" fill="#D56600"/>
<path d="M63.9172 116.612H86.0856C86.8945 116.612 87.5504 117.268 87.5504 118.077C87.5504 118.886 86.8945 119.542 86.0856 119.542H63.8542C62.9976 119.542 62.3129 118.807 62.3964 117.933C62.4691 117.172 63.1523 116.612 63.9172 116.612Z" fill="#D56600"/>
<path d="M51.4702 112.355C52.2792 112.355 52.9351 111.699 52.9351 110.89C52.9351 110.081 52.2792 109.426 51.4702 109.426C50.6612 109.426 50.0054 110.081 50.0054 110.89C50.0054 111.699 50.6612 112.355 51.4702 112.355Z" fill="#D56600"/>
<path d="M46.7095 112.355C47.5185 112.355 48.1743 111.699 48.1743 110.89C48.1743 110.081 47.5185 109.426 46.7095 109.426C45.9005 109.426 45.2446 110.081 45.2446 110.89C45.2446 111.699 45.9005 112.355 46.7095 112.355Z" fill="#D56600"/>
<path d="M40.9077 106.276C41.1333 99.4455 35.7792 93.7256 28.9489 93.5C22.1186 93.2744 16.3987 98.6285 16.1731 105.459C15.9474 112.289 21.3016 118.009 28.1318 118.235C34.9621 118.46 40.682 113.106 40.9077 106.276Z" fill="#FFBE76"/>
<path d="M28.5953 81.0645C29.4045 81.0645 30.0601 80.4085 30.0601 79.5996V13.362C30.0601 12.6504 30.6393 12.0715 31.351 12.0715H86.0447C86.8539 12.0715 87.5095 11.4155 87.5095 10.6066C87.5095 9.79774 86.8539 9.14178 86.0447 9.14178H31.3512C29.0242 9.14178 27.1307 11.0349 27.1307 13.362V79.5996C27.1304 80.4085 27.7864 81.0645 28.5953 81.0645Z" fill="#D56600"/>
<path d="M134.062 117.163L110.539 93.6407V13.362C110.539 11.0349 108.646 9.14178 106.319 9.14178H95.01C94.2009 9.14178 93.5452 9.79774 93.5452 10.6066C93.5452 11.4155 94.2009 12.0715 95.01 12.0715H106.319C107.031 12.0715 107.609 12.6504 107.609 13.362V91.7493C107.379 91.7089 107.144 91.6851 106.905 91.6851C106.395 91.6851 105.902 91.7815 105.441 91.96L95.3719 81.8906C104.617 69.0738 103.477 51.0349 91.9506 39.5077C79.1566 26.714 58.3395 26.714 45.5467 39.5077C39.3586 45.6958 35.9505 53.9358 35.9505 62.7097C35.9505 71.4835 39.3586 79.7238 45.5467 85.9116C51.9434 92.3083 60.346 95.5066 68.7486 95.5066C75.4875 95.5066 82.2252 93.4473 87.9293 89.3329L97.9986 99.4022C97.8202 99.8631 97.7238 100.357 97.7238 100.866C97.7238 101.949 98.1454 102.967 98.9115 103.733L107.609 112.431V132.246C107.609 132.958 107.031 133.537 106.319 133.537H31.3512C30.6393 133.537 30.0604 132.958 30.0604 132.246V119.65C37.0081 118.916 42.4403 113.023 42.4403 105.884C42.4403 98.7442 37.0081 92.8512 30.0604 92.117V88.5644C30.0604 87.7555 29.4047 87.0996 28.5955 87.0996C27.7863 87.0996 27.1307 87.7555 27.1307 88.5644V92.1173C20.1829 92.8514 14.751 98.7448 14.751 105.884C14.751 113.022 20.1829 118.916 27.1307 119.65V132.246C27.1307 134.573 29.0241 136.466 31.3512 136.466H106.319C108.646 136.466 110.539 134.573 110.539 132.246V115.361L123.202 128.023C123.967 128.789 124.985 129.211 126.069 129.211C127.151 129.211 128.169 128.789 128.935 128.023L134.062 122.897C135.642 121.316 135.642 118.744 134.062 117.163ZM17.6807 105.884C17.6807 99.8654 22.5771 94.969 28.5958 94.969C34.6143 94.969 39.5106 99.8654 39.5106 105.884C39.5106 111.902 34.6143 116.799 28.5958 116.799C22.5771 116.799 17.6807 111.902 17.6807 105.884ZM47.6177 83.84C41.9833 78.2054 38.8799 70.7013 38.8799 62.7097C38.8799 54.7181 41.9833 47.214 47.6177 41.5793C53.4434 35.7536 61.0957 32.8409 68.748 32.8409C76.4004 32.8409 84.0527 35.7539 89.8787 41.5796C101.53 53.2309 101.53 72.1889 89.8787 83.8403C78.2273 95.4908 59.2699 95.4911 47.6177 83.84ZM91.95 85.9116C92.5046 85.357 93.0337 84.7863 93.5402 84.2027L103.124 93.7866L99.8247 97.0857L90.2411 87.5021C90.8247 86.9953 91.3954 86.4662 91.95 85.9116ZM131.99 120.825L126.863 125.952C126.438 126.377 125.697 126.376 125.273 125.952L100.983 101.662C100.77 101.449 100.653 101.167 100.653 100.866C100.653 100.566 100.77 100.284 100.983 100.071L106.109 94.9447C106.322 94.7323 106.604 94.6154 106.904 94.6154C107.205 94.6154 107.487 94.7323 107.7 94.945L131.99 119.235C132.428 119.673 132.428 120.386 131.99 120.825Z" fill="#D56600"/>
<path d="M33.4626 104.183C33.4626 101.499 31.2791 99.3155 28.5955 99.3155C25.9119 99.3155 23.7284 101.499 23.7284 104.183C23.7284 105.506 24.261 106.707 25.1215 107.585C24.2613 108.463 23.7284 109.663 23.7284 110.987C23.7284 111.796 24.3841 112.452 25.1932 112.452C26.0024 112.452 26.6581 111.796 26.6581 110.987C26.6581 109.919 27.5273 109.05 28.5955 109.05C29.6637 109.05 30.5329 109.919 30.5329 110.987C30.5329 111.796 31.1886 112.452 31.9977 112.452C32.8069 112.452 33.4626 111.796 33.4626 110.987C33.4626 109.663 32.93 108.463 32.0695 107.585C32.93 106.707 33.4626 105.506 33.4626 104.183ZM28.5955 102.245C29.6637 102.245 30.5329 103.114 30.5329 104.183C30.5329 105.251 29.6637 106.12 28.5955 106.12C27.5273 106.12 26.6581 105.251 26.6581 104.183C26.6581 103.114 27.527 102.245 28.5955 102.245Z" fill="#D56600"/>
<path d="M128.418 45.3847H127.539V44.5058C127.539 43.6969 126.883 43.0409 126.074 43.0409C125.265 43.0409 124.609 43.6969 124.609 44.5058V45.3847H123.73C122.921 45.3847 122.266 46.0406 122.266 46.8495C122.266 47.6584 122.921 48.3144 123.73 48.3144H124.609V49.1933C124.609 50.0022 125.265 50.6581 126.074 50.6581C126.883 50.6581 127.539 50.0022 127.539 49.1933V48.3144H128.418C129.227 48.3144 129.883 47.6584 129.883 46.8495C129.883 46.0406 129.227 45.3847 128.418 45.3847Z" fill="#FF8B0A"/>
<path d="M20.0194 73.6831H19.1405V72.8042C19.1405 71.9953 18.4848 71.3394 17.6757 71.3394C16.8665 71.3394 16.2108 71.9953 16.2108 72.8042V73.6831H15.3319C14.5227 73.6831 13.8671 74.3391 13.8671 75.148C13.8671 75.9569 14.5227 76.6128 15.3319 76.6128H16.2108V77.4917C16.2108 78.3006 16.8665 78.9566 17.6757 78.9566C18.4848 78.9566 19.1405 78.3006 19.1405 77.4917V76.6128H20.0194C20.8286 76.6128 21.4843 75.9569 21.4843 75.148C21.4843 74.3391 20.8286 73.6831 20.0194 73.6831Z" fill="#FF8B0A"/>
<path d="M122.787 61.7739C122.413 61.7739 122.037 61.631 121.752 61.345L120.444 60.0372L119.135 61.345C118.564 61.9169 117.636 61.9169 117.064 61.345C116.492 60.7729 116.492 59.8453 117.064 59.2735L119.408 56.9297C119.979 56.3578 120.908 56.3578 121.479 56.9297L123.823 59.2735C124.395 59.8456 124.395 60.7732 123.823 61.345C123.537 61.631 123.162 61.7739 122.787 61.7739Z" fill="#FF8B0A"/>
<path d="M17.6757 88.9151C17.301 88.9151 16.9257 88.7722 16.6401 88.4862L15.332 87.1784L14.0239 88.4862C13.4523 89.0581 12.5241 89.0581 11.9526 88.4862C11.3804 87.9141 11.3804 86.9865 11.9526 86.4147L14.2963 84.0709C14.8679 83.499 15.796 83.499 16.3676 84.0709L18.7114 86.4147C19.2835 86.9868 19.2835 87.9144 18.7114 88.4862C18.4257 88.7719 18.0504 88.9151 17.6757 88.9151Z" fill="#FF8B0A"/>
<path d="M134.863 108.521C134.489 108.521 134.113 108.378 133.828 108.092L132.519 106.784L131.211 108.092C130.64 108.664 129.712 108.664 129.14 108.092C128.568 107.52 128.568 106.592 129.14 106.02L131.484 103.676C132.055 103.104 132.984 103.104 133.555 103.676L135.899 106.02C136.471 106.592 136.471 107.52 135.899 108.092C135.613 108.378 135.238 108.521 134.863 108.521Z" fill="#FF8B0A"/>
<path d="M40.4159 100.929H99.9471V103.859H40.4159V100.929Z" fill="#D56600"/>
</g>
</g>
<defs>
<linearGradient id="paint0_linear" x1="128.052" y1="21.9478" x2="-1.17188" y2="151.172" gradientUnits="userSpaceOnUse">
<stop stop-color="#FF8B0A" stop-opacity="0"/>
<stop offset="1" stop-color="#FF8B0A" stop-opacity="0.53"/>
</linearGradient>
<clipPath id="clip0">
<rect width="150" height="150" fill="white"/>
</clipPath>
</defs>
</svg>
