<svg width="64" height="64" viewBox="0 0 64 64" fill="none" xmlns="http://www.w3.org/2000/svg">
<g opacity="0.14">
<path d="M32 64C14.3545 64 0 49.6455 0 32C0 14.3545 14.3545 0 32 0C49.6455 0 64 14.3545 64 32C64 49.6455 49.6455 64 32 64ZM32 4C16.5601 4 4 16.5601 4 32C4 47.4399 16.5601 60 32 60C47.4399 60 60 47.4399 60 32C60 16.5601 47.4399 4 32 4Z" fill="black"/>
<path d="M46 34H18C16.896 34 16 33.104 16 32C16 30.896 16.896 30 18 30H46C47.104 30 48 30.896 48 32C48 33.104 47.104 34 46 34Z" fill="black"/>
<path d="M32 48C30.896 48 30 47.104 30 46V18C30 16.896 30.896 16 32 16C33.104 16 34 16.896 34 18V46C34 47.104 33.104 48 32 48Z" fill="black"/>
</g>
</svg>
